{
    "asset" : {
        "generator" : "Khronos glTF Blender I/O v3.2.43",
        "version" : "2.0"
    },
    "scene" : 0,
    "scenes" : [
        {
            "name" : "Scene",
            "nodes" : [
                0
            ]
        }
    ],
    "nodes" : [
        {
            "mesh" : 0,
            "name" : "H-58 406K 500cc (1) v1",
            "rotation" : [
                0,
                0.7071068286895752,
                0,
                0.7071068286895752
            ],
            "scale" : [
                0.0015973614063113928,
                0.0015973614063113928,
                0.0015973614063113928
            ],
            "translation" : [
                -0.0010521411895751953,
                0.0003098156303167343,
                -0.00014982829452492297
            ]
        }
    ],
    "meshes" : [
        {
            "name" : "H-58 406K 500cc (1) v1.001",
            "primitives" : [
                {
                    "attributes" : {
                        "POSITION" : 0,
                        "NORMAL" : 1
                    },
                    "indices" : 2
                }
            ]
        }
    ],
    "accessors" : [
        {
            "bufferView" : 0,
            "componentType" : 5126,
            "count" : 1073463,
            "max" : [
                91.83446502685547,
                840.1973876953125,
                79.49812316894531
            ],
            "min" : [
                -92.0339584350586,
                -821.5103759765625,
                -78.95423126220703
            ],
            "type" : "VEC3"
        },
        {
            "bufferView" : 1,
            "componentType" : 5126,
            "count" : 1073463,
            "type" : "VEC3"
        },
        {
            "bufferView" : 2,
            "componentType" : 5125,
            "count" : 1142595,
            "type" : "SCALAR"
        }
    ],
    "bufferViews" : [
        {
            "buffer" : 0,
            "byteLength" : 12881556,
            "byteOffset" : 0
        },
        {
            "buffer" : 0,
            "byteLength" : 12881556,
            "byteOffset" : 12881556
        },
        {
            "buffer" : 0,
            "byteLength" : 4570380,
            "byteOffset" : 25763112
        }
    ],
    "buffers" : [
        {
            "byteLength" : 30333492,
            "uri" : "model.bin"
        }
    ]
}
