{
    "asset" : {
        "generator" : "Khronos glTF Blender I/O v3.2.43",
        "version" : "2.0"
    },
    "scene" : 0,
    "scenes" : [
        {
            "name" : "Scene",
            "nodes" : [
                0
            ]
        }
    ],
    "nodes" : [
        {
            "mesh" : 0,
            "name" : "model",
            "rotation" : [
                0.5,
                -0.5,
                -0.5,
                0.5
            ],
            "scale" : [
                0.007053174078464508,
                0.007053174078464508,
                0.007053174078464508
            ]
        }
    ],
    "materials" : [
        {
            "doubleSided" : true,
            "name" : "\u30de\u30c6\u30ea\u30a2\u30eb",
            "pbrMetallicRoughness" : {
                "baseColorFactor" : [
                    0.8000000715255737,
                    0.14040808379650116,
                    0,
                    1
                ],
                "metallicFactor" : 0,
                "roughnessFactor" : 0.5
            }
        }
    ],
    "meshes" : [
        {
            "name" : "model",
            "primitives" : [
                {
                    "attributes" : {
                        "POSITION" : 0,
                        "NORMAL" : 1
                    },
                    "indices" : 2,
                    "material" : 0
                }
            ]
        }
    ],
    "accessors" : [
        {
            "bufferView" : 0,
            "componentType" : 5126,
            "count" : 1203740,
            "max" : [
                145.83935546875,
                1162.0228271484375,
                144.14410400390625
            ],
            "min" : [
                -144.78155517578125,
                -846.9345092773438,
                -146.47677612304688
            ],
            "type" : "VEC3"
        },
        {
            "bufferView" : 1,
            "componentType" : 5126,
            "count" : 1203740,
            "type" : "VEC3"
        },
        {
            "bufferView" : 2,
            "componentType" : 5125,
            "count" : 1294350,
            "type" : "SCALAR"
        }
    ],
    "bufferViews" : [
        {
            "buffer" : 0,
            "byteLength" : 14444880,
            "byteOffset" : 0
        },
        {
            "buffer" : 0,
            "byteLength" : 14444880,
            "byteOffset" : 14444880
        },
        {
            "buffer" : 0,
            "byteLength" : 5177400,
            "byteOffset" : 28889760
        }
    ],
    "buffers" : [
        {
            "byteLength" : 34067160,
            "uri" : "model.bin"
        }
    ]
}
